<?xml version="1.0" encoding="UTF-8"?>
<!DOCTYPE svg PUBLIC "-//W3C//DTD SVG 1.1//EN" "http://www.w3.org/Graphics/SVG/1.1/DTD/svg11.dtd">
<svg version="1.1" xmlns="http://www.w3.org/2000/svg" xmlns:xlink="http://www.w3.org/1999/xlink" x="0" y="0" width="200" height="200" viewBox="0, 0, 200, 200">
  <g id="Layer_1">
    <path d="M108.197,56.557 L117.213,30.328 L87.667,3.667 C87.667,3.667 71.311,3.689 69.262,3.279 C69.262,3.279 53,9.333 45.082,21.311 L40.984,34.426 C40.984,34.426 70.082,70.902 70.082,70.902 C70.082,70.902 34.016,61.885 34.016,61.885 C34.016,61.885 15.164,72.541 15.574,72.541 C15.984,72.541 13.934,86.066 13.934,86.066 L4.098,98.361 L0.82,113.525 L6.557,122.951 C6.557,122.951 25.41,138.525 25.41,138.525 C25.41,138.525 73.77,117.213 73.77,117.213 L48.361,147.541 L40.574,172.951 L70.902,200 L112,186.333 L103.279,119.672 L86,149.333 L90.667,126 C90.667,126 67.333,144.667 67.333,144.667 C67.333,144.667 89.754,112.295 89.754,112.295 L47.667,103.333 L79.508,102.869 C79.508,102.869 42.847,86 43.667,86 C44.486,86 88.667,87.667 88.667,87.667 L67.333,33 L97.541,64.754 L94.262,27.869 L108.197,56.557 z" fill="#FB5B65"/>
    <path d="M112,119.667 C112,119.667 129.667,174 129.667,174 C129.667,174 151.229,180.738 151.229,180.738 C151.229,180.738 186.475,165.984 186.475,165.984 C186.475,165.984 193.033,136.475 193.033,136.475 C193.033,136.475 170.082,109.426 170.082,109.426 C170.082,109.426 125.82,109.836 125.82,109.836 L157.888,131.333 C112.333,119.333 112,119.667 112,119.667 z" fill="#FB5B65"/>
    <path d="M123.77,97.541 C125,97.541 187.705,101.23 187.705,101.23 L196.311,90.984 L199.18,63.115 C199.18,63.115 168.033,46.311 168.033,46.721 C168.033,47.131 131.148,74.18 131.967,73.77 C132.787,73.361 166.667,76 166.667,76 L123.77,97.541 z" fill="#FB5B65"/>
    <path d="M105,109.426 C105,109.426 146.003,31.333 145.593,31.333 C145.183,31.333 96,90.333 96,90.333 L105,109.426 z" fill="#FB5B65"/>
    <g>
      <path d="M137.107,33.279 C135.188,33.279 133.632,31.723 133.632,29.804 C133.632,27.884 135.188,26.329 137.107,26.329 C139.026,26.329 140.582,27.884 140.582,29.804 C140.582,31.723 139.026,33.279 137.107,33.279 z" fill="#FFFFFF"/>
      <path d="M137.107,33.279 C135.188,33.279 133.632,31.723 133.632,29.804 C133.632,27.884 135.188,26.329 137.107,26.329 C139.026,26.329 140.582,27.884 140.582,29.804 C140.582,31.723 139.026,33.279 137.107,33.279 z" fill-opacity="0" stroke="#FFFFFF" stroke-width="1"/>
    </g>
    <g>
      <path d="M146.484,21.516 C144.565,21.516 143.009,19.96 143.009,18.041 C143.009,16.122 144.565,14.566 146.484,14.566 C148.403,14.566 149.959,16.122 149.959,18.041 C149.959,19.96 148.403,21.516 146.484,21.516 z" fill="#FFFFFF"/>
      <path d="M146.484,21.516 C144.565,21.516 143.009,19.96 143.009,18.041 C143.009,16.122 144.565,14.566 146.484,14.566 C148.403,14.566 149.959,16.122 149.959,18.041 C149.959,19.96 148.403,21.516 146.484,21.516 z" fill-opacity="0" stroke="#FFFFFF" stroke-width="1"/>
    </g>
    <g>
      <path d="M153.434,33.279 C151.515,33.279 149.959,31.723 149.959,29.804 C149.959,27.884 151.515,26.329 153.434,26.329 C155.354,26.329 156.909,27.884 156.909,29.804 C156.909,31.723 155.354,33.279 153.434,33.279 z" fill="#FFFFFF"/>
      <path d="M153.434,33.279 C151.515,33.279 149.959,31.723 149.959,29.804 C149.959,27.884 151.515,26.329 153.434,26.329 C155.354,26.329 156.909,27.884 156.909,29.804 C156.909,31.723 155.354,33.279 153.434,33.279 z" fill-opacity="0" stroke="#FFFFFF" stroke-width="1"/>
    </g>
    <g>
      <path d="M163.359,21.516 C161.44,21.516 159.884,19.96 159.884,18.041 C159.884,16.122 161.44,14.566 163.359,14.566 C165.278,14.566 166.834,16.122 166.834,18.041 C166.834,19.96 165.278,21.516 163.359,21.516 z" fill="#FFFFFF"/>
      <path d="M163.359,21.516 C161.44,21.516 159.884,19.96 159.884,18.041 C159.884,16.122 161.44,14.566 163.359,14.566 C165.278,14.566 166.834,16.122 166.834,18.041 C166.834,19.96 165.278,21.516 163.359,21.516 z" fill-opacity="0" stroke="#FFFFFF" stroke-width="1"/>
    </g>
    <g>
      <path d="M157.916,10.229 C155.997,10.229 154.441,8.673 154.441,6.754 C154.441,4.835 155.997,3.279 157.916,3.279 C159.836,3.279 161.392,4.835 161.392,6.754 C161.392,8.673 159.836,10.229 157.916,10.229 z" fill="#FFFFFF"/>
      <path d="M157.916,10.229 C155.997,10.229 154.441,8.673 154.441,6.754 C154.441,4.835 155.997,3.279 157.916,3.279 C159.836,3.279 161.392,4.835 161.392,6.754 C161.392,8.673 159.836,10.229 157.916,10.229 z" fill-opacity="0" stroke="#FFFFFF" stroke-width="1"/>
    </g>
  </g>
</svg>
