<?xml version="1.0" encoding="UTF-8"?>
<!DOCTYPE svg PUBLIC "-//W3C//DTD SVG 1.1//EN" "http://www.w3.org/Graphics/SVG/1.1/DTD/svg11.dtd">
<svg version="1.1" xmlns="http://www.w3.org/2000/svg" xmlns:xlink="http://www.w3.org/1999/xlink" x="0" y="0" width="32" height="32" viewBox="0, 0, 32, 32">
  <g id="Layer_1">
    <g>
      <path d="M17.218,9.3 L18.558,5.402 L14.167,1.44 C14.167,1.44 11.736,1.443 11.432,1.382 C11.432,1.382 9.015,2.282 7.838,4.062 L7.229,6.011 C7.229,6.011 11.554,11.432 11.554,11.432 C11.554,11.432 6.194,10.092 6.194,10.092 C6.194,10.092 3.392,11.676 3.453,11.676 C3.514,11.676 3.209,13.686 3.209,13.686 L1.748,15.513 L1.26,17.766 L2.113,19.167 C2.113,19.167 4.915,21.482 4.915,21.482 C4.915,21.482 12.102,18.314 12.102,18.314 L8.326,22.822 L7.168,26.598 L11.676,30.618 L17.783,28.587 L16.487,18.68 L13.919,23.088 L14.613,19.62 C14.613,19.62 11.145,22.394 11.145,22.394 C11.145,22.394 14.477,17.584 14.477,17.584 L8.223,16.252 L12.955,16.183 C12.955,16.183 7.506,13.676 7.628,13.676 C7.75,13.676 14.316,13.923 14.316,13.923 L11.145,5.799 L15.635,10.518 L15.147,5.037 L17.218,9.3 z" fill="#FFFFFF"/>
      <path d="M17.218,9.3 L18.558,5.402 L14.167,1.44 C14.167,1.44 11.736,1.443 11.432,1.382 C11.432,1.382 9.015,2.282 7.838,4.062 L7.229,6.011 C7.229,6.011 11.554,11.432 11.554,11.432 C11.554,11.432 6.194,10.092 6.194,10.092 C6.194,10.092 3.392,11.676 3.453,11.676 C3.514,11.676 3.209,13.686 3.209,13.686 L1.748,15.513 L1.26,17.766 L2.113,19.167 C2.113,19.167 4.915,21.482 4.915,21.482 C4.915,21.482 12.102,18.314 12.102,18.314 L8.326,22.822 L7.168,26.598 L11.676,30.618 L17.783,28.587 L16.487,18.68 L13.919,23.088 L14.613,19.62 C14.613,19.62 11.145,22.394 11.145,22.394 C11.145,22.394 14.477,17.584 14.477,17.584 L8.223,16.252 L12.955,16.183 C12.955,16.183 7.506,13.676 7.628,13.676 C7.75,13.676 14.316,13.923 14.316,13.923 L11.145,5.799 L15.635,10.518 L15.147,5.037 L17.218,9.3 z" fill-opacity="0" stroke="#FF6E67" stroke-width="1" stroke-linecap="round" stroke-linejoin="round"/>
    </g>
    <g>
      <path d="M17.783,18.679 C17.783,18.679 20.409,26.754 20.409,26.754 C20.409,26.754 23.613,27.755 23.613,27.755 C23.613,27.755 28.851,25.562 28.851,25.562 C28.851,25.562 29.826,21.177 29.826,21.177 C29.826,21.177 26.415,17.157 26.415,17.157 C26.415,17.157 19.837,17.218 19.837,17.218 L24.603,20.413 C17.833,18.63 17.783,18.679 17.783,18.679 z" fill="#FFFFFF"/>
      <path d="M17.783,18.679 C17.783,18.679 20.409,26.754 20.409,26.754 C20.409,26.754 23.613,27.755 23.613,27.755 C23.613,27.755 28.851,25.562 28.851,25.562 C28.851,25.562 29.826,21.177 29.826,21.177 C29.826,21.177 26.415,17.157 26.415,17.157 C26.415,17.157 19.837,17.218 19.837,17.218 L24.603,20.413 C17.833,18.63 17.783,18.679 17.783,18.679 z" fill-opacity="0" stroke="#FF6E67" stroke-width="1" stroke-linecap="round" stroke-linejoin="round"/>
    </g>
    <g>
      <path d="M19.533,15.391 C19.715,15.391 29.034,15.939 29.034,15.939 L30.313,14.416 L30.74,10.275 C30.74,10.275 26.111,7.778 26.111,7.838 C26.111,7.899 20.629,11.919 20.751,11.858 C20.873,11.797 25.908,12.19 25.908,12.19 L19.533,15.391 z" fill="#FFFFFF"/>
      <path d="M19.533,15.391 C19.715,15.391 29.034,15.939 29.034,15.939 L30.313,14.416 L30.74,10.275 C30.74,10.275 26.111,7.778 26.111,7.838 C26.111,7.899 20.629,11.919 20.751,11.858 C20.873,11.797 25.908,12.19 25.908,12.19 L19.533,15.391 z" fill-opacity="0" stroke="#FF6E67" stroke-width="1" stroke-linecap="round" stroke-linejoin="round"/>
    </g>
    <g>
      <path d="M16.743,17.157 C16.743,17.157 22.837,5.552 22.776,5.552 C22.715,5.552 15.406,14.32 15.406,14.32 L16.743,17.157 z" fill="#FFFFFF"/>
      <path d="M16.743,17.157 C16.743,17.157 22.837,5.552 22.776,5.552 C22.715,5.552 15.406,14.32 15.406,14.32 L16.743,17.157 z" fill-opacity="0" stroke="#FF6E67" stroke-width="1" stroke-linecap="round" stroke-linejoin="round"/>
    </g>
    <g>
      <path d="M21.515,5.841 C21.229,5.841 20.998,5.609 20.998,5.324 C20.998,5.039 21.229,4.808 21.515,4.808 C21.8,4.808 22.031,5.039 22.031,5.324 C22.031,5.609 21.8,5.841 21.515,5.841 z" fill="#FFFFFF"/>
      <path d="M21.515,5.841 C21.229,5.841 20.998,5.609 20.998,5.324 C20.998,5.039 21.229,4.808 21.515,4.808 C21.8,4.808 22.031,5.039 22.031,5.324 C22.031,5.609 21.8,5.841 21.515,5.841 z" fill-opacity="0" stroke="#FF6E67" stroke-width="1" stroke-linecap="round" stroke-linejoin="round"/>
    </g>
    <g>
      <path d="M22.908,4.093 C22.623,4.093 22.392,3.861 22.392,3.576 C22.392,3.291 22.623,3.06 22.908,3.06 C23.193,3.06 23.425,3.291 23.425,3.576 C23.425,3.861 23.193,4.093 22.908,4.093 z" fill="#FFFFFF"/>
      <path d="M22.908,4.093 C22.623,4.093 22.392,3.861 22.392,3.576 C22.392,3.291 22.623,3.06 22.908,3.06 C23.193,3.06 23.425,3.291 23.425,3.576 C23.425,3.861 23.193,4.093 22.908,4.093 z" fill-opacity="0" stroke="#FF6E67" stroke-width="1" stroke-linecap="round" stroke-linejoin="round"/>
    </g>
    <g>
      <path d="M23.941,5.841 C23.656,5.841 23.425,5.609 23.425,5.324 C23.425,5.039 23.656,4.808 23.941,4.808 C24.226,4.808 24.458,5.039 24.458,5.324 C24.458,5.609 24.226,5.841 23.941,5.841 z" fill="#FFFFFF"/>
      <path d="M23.941,5.841 C23.656,5.841 23.425,5.609 23.425,5.324 C23.425,5.039 23.656,4.808 23.941,4.808 C24.226,4.808 24.458,5.039 24.458,5.324 C24.458,5.609 24.226,5.841 23.941,5.841 z" fill-opacity="0" stroke="#FF6E67" stroke-width="1" stroke-linecap="round" stroke-linejoin="round"/>
    </g>
    <g>
      <path d="M25.416,4.093 C25.131,4.093 24.9,3.861 24.9,3.576 C24.9,3.291 25.131,3.06 25.416,3.06 C25.701,3.06 25.933,3.291 25.933,3.576 C25.933,3.861 25.701,4.093 25.416,4.093 z" fill="#FFFFFF"/>
      <path d="M25.416,4.093 C25.131,4.093 24.9,3.861 24.9,3.576 C24.9,3.291 25.131,3.06 25.416,3.06 C25.701,3.06 25.933,3.291 25.933,3.576 C25.933,3.861 25.701,4.093 25.416,4.093 z" fill-opacity="0" stroke="#FF6E67" stroke-width="1" stroke-linecap="round" stroke-linejoin="round"/>
    </g>
    <g>
      <path d="M24.607,2.415 C24.322,2.415 24.091,2.184 24.091,1.899 C24.091,1.613 24.322,1.382 24.607,1.382 C24.892,1.382 25.124,1.613 25.124,1.899 C25.124,2.184 24.892,2.415 24.607,2.415 z" fill="#FFFFFF"/>
      <path d="M24.607,2.415 C24.322,2.415 24.091,2.184 24.091,1.899 C24.091,1.613 24.322,1.382 24.607,1.382 C24.892,1.382 25.124,1.613 25.124,1.899 C25.124,2.184 24.892,2.415 24.607,2.415 z" fill-opacity="0" stroke="#FF6E67" stroke-width="1" stroke-linecap="round" stroke-linejoin="round"/>
    </g>
  </g>
</svg>
