<?xml version="1.0" encoding="UTF-8"?>
<!DOCTYPE svg PUBLIC "-//W3C//DTD SVG 1.1//EN" "http://www.w3.org/Graphics/SVG/1.1/DTD/svg11.dtd">
<svg version="1.1" xmlns="http://www.w3.org/2000/svg" xmlns:xlink="http://www.w3.org/1999/xlink" x="0" y="0" width="650" height="650" viewBox="0, 0, 650, 650">
  <defs>
    <clipPath id="Clip_1">
      <path d="M560.331,478.665 L609.25,478.665 L609.25,527.583 L560.331,527.583 z M584.791,484.665 C574.596,484.665 566.332,492.929 566.331,503.124 C566.332,513.319 574.596,521.584 584.791,521.583 C594.986,521.584 603.25,513.319 603.25,503.124 C603.25,492.929 594.986,484.665 584.791,484.665 z"/>
    </clipPath>
    <filter id="Shadow_2">
      <feGaussianBlur in="SourceAlpha" stdDeviation="2.5"/>
      <feOffset dx="0" dy="0" result="offsetblur"/>
      <feFlood flood-color="#FFBDF5"/>
      <feComposite in2="offsetblur" operator="in"/>
    </filter>
    <clipPath id="Clip_3">
      <path d="M214.612,577.442 L263.531,577.442 L263.531,626.361 L214.612,626.361 z M239.071,583.442 C228.877,583.442 220.612,591.706 220.612,601.901 C220.612,612.096 228.877,620.361 239.071,620.361 C249.266,620.361 257.531,612.096 257.531,601.901 C257.531,591.706 249.266,583.442 239.071,583.442 z"/>
    </clipPath>
    <filter id="Shadow_4">
      <feGaussianBlur in="SourceAlpha" stdDeviation="2.5"/>
      <feOffset dx="0" dy="0" result="offsetblur"/>
      <feFlood flood-color="#FFBDF5"/>
      <feComposite in2="offsetblur" operator="in"/>
    </filter>
    <clipPath id="Clip_5">
      <path d="M19.449,266.628 L68.368,266.628 L68.368,315.547 L19.449,315.547 z M43.909,272.628 C33.714,272.628 25.449,280.893 25.449,291.088 C25.449,301.283 33.714,309.547 43.909,309.547 C54.103,309.547 62.368,301.283 62.368,291.088 C62.368,280.893 54.103,272.628 43.908,272.628 z"/>
    </clipPath>
    <filter id="Shadow_6">
      <feGaussianBlur in="SourceAlpha" stdDeviation="2.5"/>
      <feOffset dx="0" dy="0" result="offsetblur"/>
      <feFlood flood-color="#FFBDF5"/>
      <feComposite in2="offsetblur" operator="in"/>
    </filter>
    <clipPath id="Clip_7">
      <path d="M178.693,10.639 L227.612,10.639 L227.612,59.558 L178.693,59.558 z M203.152,16.639 C192.958,16.639 184.693,24.904 184.693,35.099 C184.693,45.294 192.958,53.558 203.152,53.558 C213.347,53.558 221.612,45.294 221.612,35.099 C221.612,24.904 213.347,16.639 203.152,16.639 z"/>
    </clipPath>
    <filter id="Shadow_8">
      <feGaussianBlur in="SourceAlpha" stdDeviation="2.5"/>
      <feOffset dx="0" dy="0" result="offsetblur"/>
      <feFlood flood-color="#FF99F1"/>
      <feComposite in2="offsetblur" operator="in"/>
    </filter>
    <clipPath id="Clip_9">
      <path d="M592.272,173.354 L641.191,173.354 L641.191,222.273 L592.272,222.273 z M616.732,179.354 C606.537,179.354 598.272,187.619 598.272,197.813 C598.272,208.008 606.537,216.273 616.732,216.273 C626.927,216.273 635.191,208.008 635.191,197.813 C635.191,187.619 626.927,179.354 616.732,179.354 z"/>
    </clipPath>
    <filter id="Shadow_10">
      <feGaussianBlur in="SourceAlpha" stdDeviation="2.5"/>
      <feOffset dx="0" dy="0" result="offsetblur"/>
      <feFlood flood-color="#FF99F1"/>
      <feComposite in2="offsetblur" operator="in"/>
    </filter>
  </defs>
  <g id="Layer_1">
    <g>
      <path d="M584.791,521.084 C574.872,521.084 566.832,513.043 566.832,503.124 C566.832,493.205 574.872,485.165 584.791,485.165 C594.71,485.165 602.75,493.205 602.75,503.124 C602.75,513.043 594.71,521.084 584.791,521.084 z" fill="#FFFFFF"/>
      <path d="M584.791,521.084 C574.872,521.084 566.832,513.043 566.832,503.124 C566.832,493.205 574.872,485.165 584.791,485.165 C594.71,485.165 602.75,493.205 602.75,503.124 C602.75,513.043 594.71,521.084 584.791,521.084 z" fill-opacity="0" stroke="#FFFFFF" stroke-width="1"/>
      <g>
        <path d="M584.791,484.665 C594.986,484.665 603.25,492.929 603.25,503.124 C603.25,513.319 594.986,521.584 584.791,521.583 C574.596,521.584 566.332,513.319 566.331,503.124 C566.332,492.929 574.596,484.665 584.791,484.665 z" fill="rgba(0,0,0,1)" clip-path="url(#Clip_1)" filter="url(#Shadow_2)"/>
        <path d="M584.791,485.915 C594.296,485.915 602,493.62 602,503.124 C602,512.629 594.296,520.334 584.791,520.333 C575.286,520.334 567.582,512.629 567.581,503.124 C567.582,493.62 575.286,485.915 584.791,485.915 z M584.791,483.415 C573.906,483.415 565.082,492.239 565.081,503.124 C565.082,514.009 573.906,522.834 584.791,522.833 C595.676,522.834 604.5,514.009 604.5,503.124 C604.5,492.239 595.676,483.415 584.791,483.415 z" fill="rgba(0,0,0,1)" clip-path="url(#Clip_1)" filter="url(#Shadow_2)"/>
      </g>
    </g>
    <g>
      <path d="M239.071,619.861 C229.153,619.861 221.112,611.82 221.112,601.901 C221.112,591.982 229.153,583.942 239.071,583.942 C248.99,583.942 257.031,591.982 257.031,601.901 C257.031,611.82 248.99,619.861 239.071,619.861 z" fill="#FFFFFF"/>
      <path d="M239.071,619.861 C229.153,619.861 221.112,611.82 221.112,601.901 C221.112,591.982 229.153,583.942 239.071,583.942 C248.99,583.942 257.031,591.982 257.031,601.901 C257.031,611.82 248.99,619.861 239.071,619.861 z" fill-opacity="0" stroke="#FFFFFF" stroke-width="1"/>
      <g>
        <path d="M239.071,583.442 C249.266,583.442 257.531,591.706 257.531,601.901 C257.531,612.096 249.266,620.361 239.071,620.361 C228.877,620.361 220.612,612.096 220.612,601.901 C220.612,591.706 228.877,583.442 239.071,583.442 z" fill="rgba(0,0,0,1)" clip-path="url(#Clip_3)" filter="url(#Shadow_4)"/>
        <path d="M239.071,584.692 C248.576,584.692 256.281,592.397 256.281,601.901 C256.281,611.406 248.576,619.111 239.071,619.111 C229.567,619.111 221.862,611.406 221.862,601.901 C221.862,592.397 229.567,584.692 239.071,584.692 z M239.071,582.192 C228.186,582.192 219.362,591.016 219.362,601.901 C219.362,612.786 228.186,621.611 239.071,621.611 C249.957,621.611 258.781,612.786 258.781,601.901 C258.781,591.016 249.957,582.192 239.071,582.192 z" fill="rgba(0,0,0,1)" clip-path="url(#Clip_3)" filter="url(#Shadow_4)"/>
      </g>
    </g>
    <g>
      <path d="M43.909,309.047 C33.99,309.047 25.949,301.006 25.949,291.088 C25.949,281.169 33.99,273.128 43.909,273.128 C53.827,273.128 61.868,281.169 61.868,291.088 C61.868,301.006 53.827,309.047 43.909,309.047 z" fill="#FFFFFF"/>
      <path d="M43.909,309.047 C33.99,309.047 25.949,301.006 25.949,291.088 C25.949,281.169 33.99,273.128 43.909,273.128 C53.827,273.128 61.868,281.169 61.868,291.088 C61.868,301.006 53.827,309.047 43.909,309.047 z" fill-opacity="0" stroke="#FFFFFF" stroke-width="1"/>
      <g>
        <path d="M43.908,272.628 C54.103,272.628 62.368,280.893 62.368,291.088 C62.368,301.283 54.103,309.547 43.909,309.547 C33.714,309.547 25.449,301.283 25.449,291.088 C25.449,280.893 33.714,272.628 43.909,272.628 z" fill="rgba(0,0,0,1)" clip-path="url(#Clip_5)" filter="url(#Shadow_6)"/>
        <path d="M43.908,273.878 C53.413,273.878 61.118,281.583 61.118,291.088 C61.118,300.592 53.413,308.297 43.909,308.297 C34.404,308.297 26.699,300.592 26.699,291.088 C26.699,281.583 34.404,273.878 43.909,273.878 z M43.908,271.378 C33.023,271.378 24.199,280.202 24.199,291.088 C24.199,301.973 33.023,310.797 43.909,310.797 C54.794,310.797 63.618,301.973 63.618,291.088 C63.618,280.202 54.794,271.378 43.908,271.378 z" fill="rgba(0,0,0,1)" clip-path="url(#Clip_5)" filter="url(#Shadow_6)"/>
      </g>
    </g>
    <g>
      <path d="M203.153,53.058 C193.234,53.058 185.193,45.018 185.193,35.099 C185.193,25.18 193.234,17.139 203.153,17.139 C213.071,17.139 221.112,25.18 221.112,35.099 C221.112,45.018 213.071,53.058 203.153,53.058 z" fill="#FFFFFF"/>
      <path d="M203.153,53.058 C193.234,53.058 185.193,45.018 185.193,35.099 C185.193,25.18 193.234,17.139 203.153,17.139 C213.071,17.139 221.112,25.18 221.112,35.099 C221.112,45.018 213.071,53.058 203.153,53.058 z" fill-opacity="0" stroke="#FFFFFF" stroke-width="1"/>
      <g>
        <path d="M203.152,16.639 C213.347,16.639 221.612,24.904 221.612,35.099 C221.612,45.294 213.347,53.558 203.152,53.558 C192.958,53.558 184.693,45.294 184.693,35.099 C184.693,24.904 192.958,16.639 203.152,16.639 z" fill="rgba(0,0,0,1)" clip-path="url(#Clip_7)" filter="url(#Shadow_8)"/>
        <path d="M203.152,17.889 C212.657,17.889 220.362,25.594 220.362,35.099 C220.362,44.603 212.657,52.308 203.153,52.308 C193.648,52.308 185.943,44.603 185.943,35.099 C185.943,25.594 193.648,17.889 203.153,17.889 z M203.152,15.389 C192.267,15.389 183.443,24.214 183.443,35.099 C183.443,45.984 192.267,54.808 203.153,54.808 C214.038,54.808 222.862,45.984 222.862,35.099 C222.862,24.214 214.038,15.389 203.153,15.389 z" fill="rgba(0,0,0,1)" clip-path="url(#Clip_7)" filter="url(#Shadow_8)"/>
      </g>
    </g>
    <g>
      <path d="M616.732,215.773 C606.813,215.773 598.772,207.732 598.772,197.813 C598.772,187.895 606.813,179.854 616.732,179.854 C626.651,179.854 634.691,187.895 634.691,197.813 C634.691,207.732 626.651,215.773 616.732,215.773 z" fill="#FFFFFF"/>
      <path d="M616.732,215.773 C606.813,215.773 598.772,207.732 598.772,197.813 C598.772,187.895 606.813,179.854 616.732,179.854 C626.651,179.854 634.691,187.895 634.691,197.813 C634.691,207.732 626.651,215.773 616.732,215.773 z" fill-opacity="0" stroke="#FFFFFF" stroke-width="1"/>
      <g>
        <path d="M616.732,179.354 C626.927,179.354 635.191,187.619 635.191,197.813 C635.191,208.008 626.927,216.273 616.732,216.273 C606.537,216.273 598.272,208.008 598.272,197.813 C598.272,187.619 606.537,179.354 616.732,179.354 z" fill="rgba(0,0,0,1)" clip-path="url(#Clip_9)" filter="url(#Shadow_10)"/>
        <path d="M616.732,180.604 C626.236,180.604 633.941,188.309 633.941,197.813 C633.941,207.318 626.236,215.023 616.732,215.023 C607.227,215.023 599.522,207.318 599.522,197.813 C599.522,188.309 607.227,180.604 616.732,180.604 z M616.732,178.104 C605.847,178.104 597.022,186.928 597.022,197.813 C597.022,208.699 605.847,217.523 616.732,217.523 C627.617,217.523 636.441,208.699 636.441,197.813 C636.441,186.928 627.617,178.104 616.732,178.104 z" fill="rgba(0,0,0,1)" clip-path="url(#Clip_9)" filter="url(#Shadow_10)"/>
      </g>
    </g>
    <path d="M210.636,50.776 L61.868,292.101 L246.555,583.942 L574.315,492.648 L598.772,200.807 L212.132,50.776 L246.555,583.942 L598.772,200.807 L61.868,293.597 L577.308,492.648 L212.132,50.776" fill-opacity="0" stroke="#FFFFFF" stroke-width="1"/>
  </g>
</svg>
